<svg width="256" height="256" viewBox="0 0 256 256" fill="none" xmlns="http://www.w3.org/2000/svg">
<path d="M112.769 46.3965C113.989 46.1892 115.103 47.1299 115.103 48.3682V99.4284C115.103 101.161 117.205 102.125 118.633 101.146C125.825 96.2163 134.852 93.9892 144.102 93.9892C167.148 93.9892 176 109.12 176 132.656V205.085C176 206.189 175.105 207.085 174 207.085H142.744C141.639 207.085 140.744 206.189 140.744 205.085V137.699C140.744 127.307 138.76 120.429 131.892 120.429C124.261 120.429 115.103 131.127 115.103 148.397V205.085C115.103 206.189 114.208 207.085 113.103 207.085H82C80.8954 207.085 80 206.189 80 205.085V53.6494C80 52.6741 80.7036 51.8409 81.6652 51.6777L112.769 46.3965Z" fill="white"/>
</svg>
